<svg width="231" height="193" viewBox="0 0 231 193" fill="none" xmlns="http://www.w3.org/2000/svg">
<path d="M166.5 67.0006C166.5 67.829 165.828 68.5006 165 68.5006C164.172 68.5006 163.5 67.829 163.5 67.0006C163.5 66.1722 164.172 65.5006 165 65.5006C165.828 65.5006 166.5 66.1722 166.5 67.0006Z" fill="#9871F5" stroke="#9871F5"/>
<path d="M179.295 67C179.295 67.8284 178.624 68.5 177.795 68.5C176.967 68.5 176.295 67.8284 176.295 67C176.295 66.1716 176.967 65.5 177.795 65.5C178.624 65.5 179.295 66.1716 179.295 67Z" fill="#9871F5" stroke="#9871F5"/>
<path d="M192.081 67C192.081 67.8284 191.41 68.5 190.581 68.5C189.753 68.5 189.081 67.8284 189.081 67C189.081 66.1716 189.753 65.5 190.581 65.5C191.41 65.5 192.081 66.1716 192.081 67Z" fill="#9871F5" stroke="#9871F5"/>
<path d="M204.876 67C204.876 67.8284 204.205 68.5 203.376 68.5C202.548 68.5 201.876 67.8284 201.876 67C201.876 66.1716 202.548 65.5 203.376 65.5C204.205 65.5 204.876 66.1716 204.876 67Z" fill="#9871F5" stroke="#9871F5"/>
<path d="M217.662 67C217.662 67.8284 216.991 68.5 216.162 68.5C215.334 68.5 214.662 67.8284 214.662 67C214.662 66.1716 215.334 65.5 216.162 65.5C216.991 65.5 217.662 66.1716 217.662 67Z" fill="#9871F5" stroke="#9871F5"/>
<path d="M230.457 67C230.457 67.8284 229.786 68.5 228.957 68.5C228.129 68.5 227.457 67.8284 227.457 67C227.457 66.1716 228.129 65.5 228.957 65.5C229.786 65.5 230.457 66.1716 230.457 67Z" fill="#9871F5" stroke="#9871F5"/>
<path d="M166.5 77C166.5 77.8284 165.828 78.5 165 78.5C164.172 78.5 163.5 77.8284 163.5 77C163.5 76.1716 164.172 75.5 165 75.5C165.828 75.5 166.5 76.1716 166.5 77Z" fill="#9871F5" stroke="#9871F5"/>
<path d="M179.296 77C179.296 77.8284 178.624 78.5 177.796 78.5C176.967 78.5 176.296 77.8284 176.296 77C176.296 76.1716 176.967 75.5 177.796 75.5C178.624 75.5 179.296 76.1716 179.296 77Z" fill="#9871F5" stroke="#9871F5"/>
<path d="M192.081 77C192.081 77.8284 191.41 78.5 190.581 78.5C189.753 78.5 189.081 77.8284 189.081 77C189.081 76.1716 189.753 75.5 190.581 75.5C191.41 75.5 192.081 76.1716 192.081 77Z" fill="#9871F5" stroke="#9871F5"/>
<path d="M204.876 77C204.876 77.8284 204.205 78.5 203.376 78.5C202.548 78.5 201.876 77.8284 201.876 77C201.876 76.1716 202.548 75.5 203.376 75.5C204.205 75.5 204.876 76.1716 204.876 77Z" fill="#9871F5" stroke="#9871F5"/>
<path d="M217.662 77C217.662 77.8284 216.991 78.5 216.162 78.5C215.334 78.5 214.662 77.8284 214.662 77C214.662 76.1716 215.334 75.5 216.162 75.5C216.991 75.5 217.662 76.1716 217.662 77Z" fill="#9871F5" stroke="#9871F5"/>
<path d="M230.457 77C230.457 77.8284 229.786 78.5 228.957 78.5C228.129 78.5 227.457 77.8284 227.457 77C227.457 76.1716 228.129 75.5 228.957 75.5C229.786 75.5 230.457 76.1716 230.457 77Z" fill="#9871F5" stroke="#9871F5"/>
<path d="M166.5 87C166.5 87.8284 165.828 88.5 165 88.5C164.172 88.5 163.5 87.8284 163.5 87C163.5 86.1716 164.172 85.5 165 85.5C165.828 85.5 166.5 86.1716 166.5 87Z" fill="#9871F5" stroke="#9871F5"/>
<path d="M179.296 87C179.296 87.8284 178.624 88.5 177.796 88.5C176.967 88.5 176.296 87.8284 176.296 87C176.296 86.1716 176.967 85.5 177.796 85.5C178.624 85.5 179.296 86.1716 179.296 87Z" fill="#9871F5" stroke="#9871F5"/>
<path d="M192.081 87C192.081 87.8284 191.41 88.5 190.581 88.5C189.753 88.5 189.081 87.8284 189.081 87C189.081 86.1716 189.753 85.5 190.581 85.5C191.41 85.5 192.081 86.1716 192.081 87Z" fill="#9871F5" stroke="#9871F5"/>
<path d="M204.876 87C204.876 87.8284 204.205 88.5 203.376 88.5C202.548 88.5 201.876 87.8284 201.876 87C201.876 86.1716 202.548 85.5 203.376 85.5C204.205 85.5 204.876 86.1716 204.876 87Z" fill="#9871F5" stroke="#9871F5"/>
<path d="M217.662 87C217.662 87.8284 216.991 88.5 216.162 88.5C215.334 88.5 214.662 87.8284 214.662 87C214.662 86.1716 215.334 85.5 216.162 85.5C216.991 85.5 217.662 86.1716 217.662 87Z" fill="#9871F5" stroke="#9871F5"/>
<path d="M230.457 87C230.457 87.8284 229.786 88.5 228.957 88.5C228.129 88.5 227.457 87.8284 227.457 87C227.457 86.1716 228.129 85.5 228.957 85.5C229.786 85.5 230.457 86.1716 230.457 87Z" fill="#9871F5" stroke="#9871F5"/>
<path d="M166.5 97C166.5 97.8284 165.828 98.5 165 98.5C164.172 98.5 163.5 97.8284 163.5 97C163.5 96.1716 164.172 95.5 165 95.5C165.828 95.5 166.5 96.1716 166.5 97Z" fill="#9871F5" stroke="#9871F5"/>
<path d="M179.296 97C179.296 97.8284 178.624 98.5 177.796 98.5C176.967 98.5 176.296 97.8284 176.296 97C176.296 96.1716 176.967 95.5 177.796 95.5C178.624 95.5 179.296 96.1716 179.296 97Z" fill="#9871F5" stroke="#9871F5"/>
<path d="M192.081 97C192.081 97.8284 191.41 98.5 190.581 98.5C189.753 98.5 189.081 97.8284 189.081 97C189.081 96.1716 189.753 95.5 190.581 95.5C191.41 95.5 192.081 96.1716 192.081 97Z" fill="#9871F5" stroke="#9871F5"/>
<path d="M204.876 97C204.876 97.8284 204.205 98.5 203.376 98.5C202.548 98.5 201.876 97.8284 201.876 97C201.876 96.1716 202.548 95.5 203.376 95.5C204.205 95.5 204.876 96.1716 204.876 97Z" fill="#9871F5" stroke="#9871F5"/>
<path d="M217.662 97C217.662 97.8284 216.991 98.5 216.162 98.5C215.334 98.5 214.662 97.8284 214.662 97C214.662 96.1716 215.334 95.5 216.162 95.5C216.991 95.5 217.662 96.1716 217.662 97Z" fill="#9871F5" stroke="#9871F5"/>
<path d="M230.457 97C230.457 97.8284 229.786 98.5 228.957 98.5C228.129 98.5 227.457 97.8284 227.457 97C227.457 96.1716 228.129 95.5 228.957 95.5C229.786 95.5 230.457 96.1716 230.457 97Z" fill="#9871F5" stroke="#9871F5"/>
<path d="M-1.52588e-05 96.5C-1.52588e-05 149.795 43.205 193 96.5 193C149.795 193 193 149.795 193 96.5C193 43.205 149.795 -1.52588e-05 96.5 -1.52588e-05H-1.52588e-05V96.5Z" fill="url(#paint0_linear)"/>
<defs>
<linearGradient id="paint0_linear" x1="96.5" y1="193" x2="96.5" y2="7.7486e-06" gradientUnits="userSpaceOnUse">
<stop stop-color="#FFC700"/>
<stop offset="1" stop-color="#FFC700" stop-opacity="0.6"/>
</linearGradient>
</defs>
</svg>
